<svg aria-hidden="true" style="width:0;height:0;position:absolute;overflow:hidden" xmlns="http://www.w3.org/2000/svg"><defs><symbol id="heart" viewBox="0 0 34 32"><path fill="#ff6b08" style="fill:var(--color1,#ff6b08)" d="m17.231 31.705-2.412-2.412C5.859 21.367.001 16.025.001 9.478.001 4.136 4.136.001 9.478.001c2.929 0 5.858 1.378 7.754 3.618 1.895-2.24 4.825-3.618 7.754-3.618 5.342 0 9.477 4.135 9.477 9.477 0 6.548-5.858 11.889-14.818 19.815l-2.412 2.412z"/></symbol><symbol id="search" viewBox="0 0 32 32"><path d="m31.008 27.231-7.58-6.447c-.784-.705-1.622-1.029-2.299-.998a11.954 11.954 0 0 0 2.87-7.787c0-6.627-5.373-12-12-12s-12 5.373-12 12 5.373 12 12 12c2.972 0 5.691-1.081 7.787-2.87-.031.677.293 1.515.998 2.299l6.447 7.58c1.104 1.226 2.907 1.33 4.007.23s.997-2.903-.23-4.007zM12 20a8 8 0 1 1 0-16 8 8 0 0 1 0 16z"/></symbol><symbol id="close" viewBox="0 0 32 32"><path d="m17.88 16 5.733-5.72a1.339 1.339 0 0 0-1.894-1.894l-5.72 5.733-5.72-5.733a1.339 1.339 0 0 0-1.894 1.894L14.118 16l-5.733 5.72a1.333 1.333 0 0 0 0 1.894 1.333 1.333 0 0 0 1.894 0l5.72-5.733 5.72 5.733a1.333 1.333 0 0 0 1.894 0 1.333 1.333 0 0 0 0-1.894z"/></symbol><symbol id="icon-uncheck" viewBox="0 0 448 512"><path d="M0 96c0-35.35 28.65-64 64-64h320c35.3 0 64 28.65 64 64v320c0 35.3-28.7 64-64 64H64c-35.35 0-64-28.7-64-64V96Zm48 0v320c0 8.8 7.16 16 16 16h320c8.8 0 16-7.2 16-16V96c0-8.84-7.2-16-16-16H64c-8.84 0-16 7.16-16 16Z"/></symbol><symbol id="icon-check" viewBox="0 0 34 32"><path fill="#2196f3" style="fill:var(--color1,#2196f3)" d="M4.267 0h25.6a4.267 4.267 0 0 1 4.267 4.267v23.467a4.267 4.267 0 0 1-4.267 4.267h-25.6A4.267 4.267 0 0 1 0 27.734V4.267A4.267 4.267 0 0 1 4.267 0z"/><path fill="#fff" style="fill:var(--color2,#fff);stroke:var(--color2,#fff)" stroke="#fff" stroke-width=".427" d="m8.442 16.537-.147-.14-2.205 2.088 7.767 7.41 16.318-15.567-2.19-2.089-14.128 13.465-5.416-5.167z"/></symbol></defs></svg>